PathFileType  4	(X/Y/Z) C:\Users\antoi\Documents\MyRepositories\mobilecap\ResultsAnalysis
DataRate	CameraRate	NumFrames	NumMarkers	Units	OrigDataRate	OrigDataStartFrame	OrigNumFrames
100.0	100.0	6	51	mm	100.0	92	146
Frame#	Time	r_knee			r_shank_antsup			r_ankle			r_calc			r_5meta			r_toe			L_knee			L_shank_antsup			L_ankle			L_calc			L_5meta			L_toe			r_sh2			r_sh3			r_sh4			L_sh2			L_sh3			r_thigh1			r_thigh2			r_thigh3			r_thigh4			r_thigh5			L_thigh1			L_thigh2			L_thigh3			L_thigh4			r.ASIS			r.PSIS			L.ASIS			L.PSIS			C7			R_Shoulder			L_Shoulder			R_Sternum			L_Sternum			R_humerus			R_elbow_med			R_elbow_lat			R_forearm			R_wrist_radius			R_wrist_ulna			L_humerus			L_elbow_med			L_elbow_lat			L_forearm			L_wrist_radius			L_wrist_ulna			R_HJC			L_HJC			R_HJC_reg			L_HJC_reg			
		X1	Y1	Z1	X2	Y2	Z2	X3	Y3	Z3	X4	Y4	Z4	X5	Y5	Z5	X6	Y6	Z6	X7	Y7	Z7	X8	Y8	Z8	X9	Y9	Z9	X10	Y10	Z10	X11	Y11	Z11	X12	Y12	Z12	X13	Y13	Z13	X14	Y14	Z14	X15	Y15	Z15	X16	Y16	Z16	X17	Y17	Z17	X18	Y18	Z18	X19	Y19	Z19	X20	Y20	Z20	X21	Y21	Z21	X22	Y22	Z22	X23	Y23	Z23	X24	Y24	Z24	X25	Y25	Z25	X26	Y26	Z26	X27	Y27	Z27	X28	Y28	Z28	X29	Y29	Z29	X30	Y30	Z30	X31	Y31	Z31	X32	Y32	Z32	X33	Y33	Z33	X34	Y34	Z34	X35	Y35	Z35	X36	Y36	Z36	X37	Y37	Z37	X38	Y38	Z38	X39	Y39	Z39	X40	Y40	Z40	X41	Y41	Z41	X42	Y42	Z42	X43	Y43	Z43	X44	Y44	Z44	X45	Y45	Z45	X46	Y46	Z46	X47	Y47	Z47	X48	Y48	Z48	X49	Y49	Z49	X50	Y50	Z50	X51	Y51	Z51	

92	0.91000000	1004.10874	553.72598	-9.93812	973.88180	477.50176	-2.80185	693.06028	265.26434	-86.98000	626.98450	267.09494	-151.17874	741.76363	115.39034	-40.51726	797.16133	113.32615	-87.34938	949.02652	538.03245	-304.04943	976.02915	416.89720	-308.60161	892.64361	97.14238	-292.96730	818.74782	54.82989	-260.99719	1047.24220	33.35458	-319.26072	1064.01586	60.08598	-252.25150	891.17707	399.70892	-13.29776	919.82321	532.11453	1.00925	831.63192	459.39757	-18.67337	890.92623	430.92390	-338.23431	882.70133	310.89779	-335.69554	976.82538	867.57650	21.07879	1025.04414	769.26464	16.64718	979.84195	721.16498	36.43547	875.11011	818.81638	10.89307	927.90741	714.88622	14.45339	988.97324	865.31450	-330.95470	1009.03083	728.94393	-323.08578	875.87940	844.92887	-348.18167	904.98163	707.25449	-340.24043	963.60624	1046.80500	-33.06080	779.22401	1098.02523	-121.70838	985.53714	1047.56161	-291.62757	783.90000	1099.75973	-225.16754	842.18700	1592.04012	-282.25595	878.78790	1607.91389	-107.41378	912.56220	1521.00539	-415.67557	986.36379	1525.02097	-213.33574	991.90100	1508.57304	-268.77884	782.25520	1385.41583	38.48137	746.21719	1281.81315	-17.63012	740.73580	1307.26291	62.54474	801.26489	1173.48600	132.98896	844.21737	1070.30819	163.74120	798.92316	1071.92790	166.67590	896.71273	1256.07975	-477.50252	841.86919	1170.63590	-413.47160	871.75951	1168.79595	-477.93285	935.47690	1007.65454	-480.00499	974.81403	917.85009	-462.94932	937.97418	906.46130	-476.50348	875.84442	972.97058	-45.93689	894.12413	974.98121	-275.56834	891.78025	974.68739	-74.25901	899.51223	977.55517	-245.32905	
93	0.92000000	1022.01735	556.64295	-11.68520	994.69032	479.06806	-4.21363	722.17625	255.03382	-87.28709	655.47961	252.66538	-151.08897	780.03901	108.35242	-41.16882	834.75341	109.57126	-88.47225	951.90357	537.71186	-304.86619	978.01592	416.35570	-309.16521	892.77150	97.09678	-292.94557	818.83107	54.86114	-260.92975	1047.29610	33.26161	-319.31213	1063.95318	59.91001	-252.32610	915.22376	397.96732	-14.51820	938.43761	531.43963	0.15587	853.10978	455.51779	-19.14478	893.04440	430.94217	-338.81374	884.11871	310.94151	-336.10617	990.65968	870.56706	19.86023	1040.32610	773.03301	15.06821	996.01539	724.43128	35.49102	889.51064	820.17161	11.20957	944.15422	717.15222	14.47892	996.72472	864.85093	-331.75486	1015.09096	728.34511	-323.68696	883.24685	845.77605	-348.94034	910.63724	707.84418	-341.00061	974.22414	1048.00081	-34.41961	789.41322	1098.75112	-122.27426	995.19863	1047.89974	-293.04982	793.93043	1100.38533	-225.71724	852.22319	1593.53984	-280.90453	887.94542	1607.98238	-105.93188	922.69968	1523.95449	-414.54846	996.21831	1526.15989	-212.03228	1001.98569	1510.15559	-267.59321	791.80655	1384.12201	38.14307	756.52062	1280.84200	-19.02988	750.54212	1305.57513	61.52643	811.90701	1171.78202	131.49115	855.33359	1068.78847	161.79738	810.07541	1070.04706	164.53426	912.99997	1259.52477	-478.72702	860.20107	1171.70828	-415.62459	890.63338	1171.50040	-480.02949	960.13066	1012.69545	-482.52814	1002.81154	924.13523	-465.61507	966.53532	911.85732	-479.69587	886.50683	974.03360	-46.62385	903.82232	975.40483	-276.33348	902.22285	975.36743	-75.45495	909.69324	978.06977	-246.52813	
94	0.93000000	1039.32567	559.25830	-13.46390	1015.15877	480.32861	-5.63126	752.05433	244.10240	-87.45897	685.03595	237.38055	-150.89043	819.01959	101.30318	-41.47725	872.67310	105.62461	-89.31099	954.74694	537.36375	-305.63273	979.96890	415.79407	-309.67464	892.90524	97.06145	-292.90493	818.92650	54.94090	-260.91898	1047.33084	33.17164	-319.36387	1063.87571	59.71427	-252.36700	939.33503	395.79151	-15.75994	956.66086	530.21504	-0.69897	874.52149	450.96135	-19.58856	895.14639	430.95188	-339.34052	885.52240	310.99145	-336.45871	1004.38884	873.26444	18.57605	1055.32675	776.40978	13.37978	1011.92541	727.38842	34.38096	903.72954	821.34914	11.38412	960.05946	719.26207	14.32557	1004.40816	864.29012	-332.53286	1021.09137	727.68078	-324.19823	890.45663	846.58660	-349.62434	916.15735	708.39697	-341.67358	984.90200	1049.00472	-35.74981	799.64415	1099.32438	-122.69060	1004.81210	1048.08691	-294.42942	803.92015	1100.87494	-226.10619	862.24599	1594.88088	-279.49125	897.15917	1607.84696	-104.40716	932.94226	1526.76871	-413.34423	1006.07781	1527.09114	-210.71056	1012.06635	1511.54474	-266.37034	801.32460	1382.67657	37.84634	766.78299	1279.65549	-20.28878	760.31998	1303.73444	60.53587	822.47974	1169.92444	129.96116	866.48219	1067.12354	159.80967	821.26728	1068.02140	162.36159	929.29070	1263.03831	-479.90067	878.57369	1172.94736	-417.73568	909.48457	1174.36871	-482.06785	984.68132	1018.08809	-484.90840	1030.65484	930.93269	-468.11474	994.95464	917.74641	-482.71830	897.22638	974.91732	-47.23576	913.45897	975.68908	-277.02639	912.72844	975.88175	-76.56835	919.80125	978.44640	-247.63819	
95	0.94000000	1056.02861	561.52109	-15.28612	1035.23132	481.30822	-7.04444	782.70545	232.65712	-87.45657	715.69318	221.52240	-150.52783	858.51603	94.33080	-41.41571	910.87145	101.57414	-89.80885	957.58605	537.00673	-306.35711	981.91548	415.23395	-310.14595	893.04479	97.04594	-292.85323	819.03054	55.05570	-260.95064	1047.34534	33.08260	-319.41958	1063.78633	59.50223	-252.37859	963.45931	393.26877	-16.99349	974.44827	528.48973	-1.63785	895.88656	445.76622	-20.04429	897.23862	430.95677	-339.81558	886.90951	311.05697	-336.75901	1017.91133	875.62139	17.23950	1069.94806	779.35249	11.59598	1027.43649	729.95887	33.11025	917.66988	822.31017	11.34266	975.51998	721.19382	13.96298	1012.03575	863.62452	-333.33490	1026.98375	726.90893	-324.68966	897.54260	847.37814	-350.22554	921.53038	708.91343	-342.24700	995.62972	1049.79927	-37.03272	809.92312	1099.75722	-122.97375	1014.39435	1048.11536	-295.75239	813.88240	1101.25201	-226.35965	872.24613	1596.07381	-278.02025	906.44269	1607.51269	-102.83815	943.28582	1529.43589	-412.05788	1015.95624	1527.82600	-209.37516	1022.15015	1512.74641	-265.11369	810.84515	1381.07667	37.59293	777.01238	1278.27084	-21.41562	770.09664	1301.74850	59.58161	832.97488	1167.91456	128.39728	877.67348	1065.30584	157.77425	832.49877	1065.84728	160.16449	945.57923	1266.59780	-481.02411	896.98829	1174.33479	-419.80978	928.29943	1177.37258	-484.05128	1009.09040	1023.80010	-487.13909	1058.28680	938.18739	-470.42857	1023.17368	924.08632	-485.55228	907.97689	975.61902	-47.77957	923.04172	975.83894	-277.65072	923.28531	976.21492	-77.59417	929.83563	978.68807	-248.65768	
96	0.95000000	1072.10049	563.39784	-17.17060	1054.83584	482.04786	-8.46601	814.13656	220.89094	-87.24551	747.45935	205.36432	-149.94267	898.36555	87.50815	-40.97228	949.40068	97.57209	-89.89871	960.44117	536.65673	-307.05811	983.87823	414.69413	-310.60720	893.18974	97.04972	-292.80011	819.12893	55.19100	-261.00521	1047.34357	32.99149	-319.48334	1063.69427	59.28644	-252.37524	987.51622	390.50927	-18.18011	991.75837	526.30029	-2.73365	917.21490	439.98978	-20.54819	899.32054	430.96011	-340.24765	888.26805	311.14310	-337.02018	1031.12779	877.59579	15.87281	1084.10573	781.83354	9.73104	1042.41674	732.09175	31.69764	931.24961	823.03053	11.05281	990.44236	722.89820	13.37907	1019.60745	862.85780	-334.18503	1032.74213	726.01778	-325.21267	904.54910	848.14352	-350.73690	926.77843	709.38810	-342.72242	1006.38985	1050.37291	-38.25080	820.24976	1100.06348	-123.14173	1023.95882	1047.98012	-297.00044	823.83371	1101.53746	-226.50373	882.22113	1597.12398	-276.49879	915.80650	1606.98824	-101.22431	953.72329	1531.94639	-410.68543	1025.86688	1528.37997	-208.02629	1032.25207	1513.77003	-263.82509	820.40882	1379.31948	37.38320	787.23356	1276.70918	-22.43929	779.90330	1299.62362	58.67187	843.41872	1165.75158	126.80696	888.91286	1063.32561	155.69301	843.76699	1063.52108	157.95328	961.85623	1270.18465	-482.09343	915.44311	1175.85262	-421.85276	947.06322	1180.48776	-485.98128	1033.31951	1029.80045	-489.21473	1085.65339	945.84146	-472.54079	1051.14634	930.83970	-488.17916	918.72778	976.13981	-48.26014	932.57811	975.86006	-278.20824	933.87018	976.35990	-78.53232	939.80057	978.79918	-249.58589	
97	0.96000000	1087.50355	564.87096	-19.13765	1073.89193	482.59008	-9.92488	846.35135	208.99368	-86.80495	780.30983	189.15740	-149.09526	938.45414	80.90609	-40.15392	988.34995	93.79456	-89.52797	963.31906	536.32162	-307.75705	985.87012	414.18251	-311.08748	893.34225	97.06440	-292.75529	819.20202	55.33300	-261.06168	1047.33349	32.89498	-319.55926	1063.61391	59.08531	-252.37747	1011.41486	387.62469	-19.28195	1008.55442	523.66613	-4.03264	938.50351	433.70592	-21.13328	901.39072	430.96498	-340.65060	889.58636	311.24994	-337.25983	1043.96228	879.15458	14.50718	1097.74115	783.83585	7.79986	1056.77534	733.76940	30.16545	944.41477	823.50181	10.52741	1004.75165	724.30484	12.57609	1027.11200	861.99991	-335.08723	1038.36864	725.02541	-325.79729	911.52151	848.86147	-351.15253	931.94897	709.81358	-343.11320	1017.16039	1050.72138	-39.39069	830.62182	1100.25636	-123.21323	1033.51096	1047.68098	-298.15157	833.79389	1101.74483	-226.56061	892.18510	1598.02806	-274.93544	925.26212	1606.28264	-99.56519	964.24479	1534.29465	-409.22429	1035.82337	1528.76742	-206.66095	1042.38958	1514.62372	-262.50630	830.05393	1377.40226	37.21693	797.48316	1274.98717	-23.39350	789.77260	1297.36366	57.81380	853.86742	1163.43466	125.20505	900.19883	1061.17264	153.57421	855.06682	1061.04090	155.74040	978.11231	1273.78590	-483.10086	933.91633	1177.49054	-423.87224	965.76112	1183.69652	-487.85622	1057.33145	1036.05948	-491.12971	1112.70238	953.84186	-474.44153	1078.83229	937.97302	-490.58252	929.45020	976.48404	-48.67933	942.07553	975.75765	-278.69833	944.45264	976.32232	-79.38493	949.70199	978.78570	-250.41872	
